<svg width="250" height="248" viewBox="0 0 250 248" fill="none" xmlns="http://www.w3.org/2000/svg" style="transform-origin: 50% 50%; transform: rotate(90deg);">
    <path d="M60.7923 6.7078C59.5491 17.0806 55.8888 29.7355 54.0931 29.7355C53.6097 29.7355 50.2946 28.3525 46.7723 26.6928C41.1092 24.065 32.4762 21.4372 29.2993 21.4372C28.4704 21.4372 28.8849 22.682 30.8877 26.762C33.9265 32.9165 36.689 42.5286 36.3437 45.8479L36.1366 48.0608L29.9208 48.5449C11.8261 49.9279 3.33126 50.7578 3.33126 51.1036C3.33126 51.3802 6.37007 54.6303 10.0995 58.4337C17.0749 65.4872 22.1857 73.0248 21.8403 75.6525C21.7022 76.6208 18.18 79.5249 10.9283 84.5733C5.05785 88.6534 0.154326 92.318 0.0161987 92.6643C-0.121929 93.0099 0.637773 93.494 1.7428 93.7704C9.13264 95.3613 12.3096 96.3981 14.934 97.9198C18.5253 100.063 22.2547 103.245 24.1195 105.872L25.5008 107.808L17.7656 115.484C11.2736 121.984 10.1686 123.299 10.9974 124.059C11.5498 124.543 15.6937 126.134 20.2519 127.517C24.8101 128.9 28.8158 130.352 29.1611 130.698C29.5064 131.044 28.9539 134.57 27.6417 139.411C26.4676 143.906 25.7079 147.848 25.9151 148.193C26.2604 148.816 37.656 148.262 39.5206 147.571C41.2472 146.949 41.9379 148.608 42.4214 154.071C42.6976 157.252 43.112 159.949 43.3882 160.087C43.9407 160.434 51.6759 157.114 51.6759 156.561C51.6759 156.353 50.7781 154.901 49.6731 153.311C46.4961 148.677 44.3551 143.906 42.3523 137.267C41.3854 133.81 39.9351 129.176 39.2444 126.894C38.4847 124.613 37.725 121.501 37.5869 119.979C36.62 112.649 36.4819 109.952 37.1725 109.952C37.5178 109.952 37.8632 111.128 37.8632 112.511C37.9322 115.623 39.4516 123.921 40.4876 126.894C40.9019 128.001 42.2142 132.081 43.3882 135.884C46.2199 144.805 50.2946 152.827 53.8169 156.353C55.4744 158.013 59.0657 160.364 62.5189 161.955L68.3202 164.652L68.1134 167.21L67.9059 169.769L52.5047 174.886L37.1034 180.072L35.1006 186.642C33.9955 190.307 30.8877 201.164 28.1251 210.846C25.3626 220.457 22.7382 228.756 22.3238 229.17C21.9094 229.585 20.6663 233.32 19.6303 237.538C18.5944 241.687 17.6275 245.698 17.4202 246.321C17.0749 247.496 19.8375 247.565 68.8729 247.565C117.977 247.565 120.74 247.496 120.74 246.321C120.74 245.698 117.494 242.102 113.488 238.368C109.482 234.634 106.236 231.176 106.236 230.623C106.236 230.139 108.723 227.58 111.692 224.952C119.289 218.452 119.359 218.038 116.251 210.084C111.002 196.739 99.7443 176.131 95.6002 172.258C94.288 171.014 93.8045 169.838 93.8045 167.971C93.8045 165.136 94.4263 164.444 97.9486 163.268C101.54 162.093 105.062 159.396 107.48 156.008C109.413 153.311 110.242 152.827 115.56 151.167C118.806 150.13 121.43 149.023 121.43 148.747C121.43 148.401 120.187 146.603 118.668 144.805C115.698 141.209 115.145 138.65 117.149 138.028C117.77 137.821 120.187 137.474 122.466 137.198C124.745 136.991 126.817 136.645 127.093 136.438C127.715 136.161 124.193 126.341 123.364 125.995C123.088 125.857 122.812 125.235 122.812 124.543C122.812 123.714 123.779 123.091 126.265 122.468C130.546 121.362 140.768 116.452 140.768 115.553C140.768 115.139 139.456 114.17 137.868 113.341C129.027 108.846 121.845 103.659 123.295 102.83C123.571 102.691 126.126 101.861 128.889 101.032C131.652 100.202 136.141 98.4732 138.903 97.2279C143.669 95.0843 153.476 89.2754 153.061 88.8605C152.785 88.6534 134.069 80.6317 132.273 80.009C131.444 79.6634 131.237 79.2485 131.583 78.6259C131.859 78.0732 136.417 73.6474 141.666 68.8068C146.846 63.8967 151.128 59.6784 151.128 59.4018C151.128 58.8486 146.845 58.0879 134.207 56.29C129.649 55.5984 125.643 54.9069 125.367 54.6303C125.022 54.3537 128.199 48.2683 132.411 41.1456C139.249 29.4589 140.561 26.9694 139.87 26.9694C139.732 26.9694 134.069 28.9748 127.301 31.4643C117.425 35.0602 114.731 35.7518 114.041 35.0602C112.521 33.5389 111.07 22.1287 111.07 11.8942V2.00542L105.477 4.97896C98.9156 8.50574 90.1446 15.3518 86.0697 20.1233C84.55 21.9904 82.9618 23.5118 82.6858 23.5118C82.34 23.5118 79.7156 20.3308 76.746 16.3891C71.6356 9.61217 63.0023 0 62.0354 0C61.7592 0 61.2067 3.0427 60.7923 6.7078ZM62.7261 180.003C60.1707 182.009 47.1177 216.516 48.1536 218.314C48.4989 218.936 51.4687 221.771 54.7838 224.676C58.1679 227.58 60.9995 230.277 61.1377 230.692C61.2757 231.107 60.447 232.629 59.2729 234.08C58.1679 235.533 57.201 236.293 57.201 235.809C57.201 235.394 57.8225 234.15 58.6514 233.181L60.1017 231.315L53.4716 225.091C48.8443 220.734 46.8414 218.383 46.8414 217.276C46.8414 215.063 54.7147 193.903 59.5491 183.046C60.7233 180.418 61.6901 179.104 62.5189 179.104C63.6239 179.173 63.6239 179.243 62.7261 180.003Z" fill="#F2F4F7"/>
    <path d="M178.34 97.1593C158.933 100.686 148.228 108.362 134.347 128.9C131.308 133.326 131.1 133.879 131.1 138.166C131.1 141.485 130.41 144.736 128.614 150.337C125.576 159.811 125.713 162.024 130.064 169.423C131.791 172.328 133.172 175.094 133.172 175.44C133.172 175.854 132.274 177.168 131.1 178.413C127.44 182.355 127.509 188.44 131.308 192.52C133.518 194.802 138.698 196.946 140.079 196.047C140.424 195.84 139.941 194.249 139.043 192.451C138.076 190.722 137.316 188.786 137.385 188.163C137.385 187.472 137.731 187.679 138.145 188.786C139.319 191.345 144.775 199.781 147.469 203.1C152.787 209.739 164.251 216.447 174.956 219.282C178.202 220.112 183.935 220.872 188.769 221.08C193.327 221.287 196.435 221.702 195.675 221.979C191.531 223.431 172.469 220.734 163.698 217.415L159.141 215.686L157.966 217.276C153.615 223.016 148.642 236.086 147.399 244.938L147.054 247.565H189.874C230.345 247.565 232.693 247.496 232.348 246.321C232.141 245.698 231.036 241.549 229.931 237.123C227.514 227.58 225.58 222.809 222.472 218.729C221.229 217.069 220.193 215.341 220.193 214.856C220.262 214.442 221.988 212.781 224.13 211.26C227.997 208.494 233.315 202.893 236.215 198.467C237.182 197.015 238.702 195.84 240.083 195.425C241.257 195.078 243.467 193.627 244.986 192.244C249.752 187.679 250.236 181.456 246.023 177.79C244.572 176.546 244.365 175.924 244.78 173.711C245.056 172.328 245.47 171.014 245.747 170.806C246.023 170.599 246.644 168.593 247.128 166.311C247.818 162.992 247.818 160.434 247.128 153.311C246.644 148.47 245.953 144.529 245.608 144.529C245.263 144.529 245.056 142.592 245.125 140.171C245.263 136.368 244.918 135.193 242.431 130.352C239.116 123.782 234.213 116.591 229.24 111.197C226.201 107.877 224.198 106.564 216.394 102.691C210.869 99.9941 205.206 97.712 202.444 97.1593C196.711 95.914 184.97 95.914 178.34 97.1593Z" fill="#F2F4F7"/>
    <path d="M97.2589 172.604C97.2589 172.812 98.5711 174.748 100.228 176.891C101.886 179.036 104.165 182.424 105.408 184.291C108.654 189.477 116.182 205.659 118.392 212.09C120.809 218.936 120.602 219.42 113.35 225.574C110.588 227.926 108.309 230.416 108.309 230.968C108.309 231.591 111.416 234.91 115.215 238.506C119.359 242.31 122.121 245.422 122.121 246.251C122.121 247.496 122.674 247.565 131.79 247.565C139.042 247.565 141.46 247.358 141.46 246.666C141.46 243.762 124.539 182.839 122.95 179.935C122.674 179.381 118.254 177.929 113.144 176.615C108.032 175.37 102.715 173.849 101.264 173.227C98.4328 172.12 97.2589 171.913 97.2589 172.604Z" fill="#F2F4F7"/>
</svg>
